<svg width="32" height="32" viewBox="0 0 32 32" fill="none" xmlns="http://www.w3.org/2000/svg">
<rect opacity="0.1" x="0.559761" y="0.559761" width="30.8805" height="30.8805" rx="15.4402" fill="white" stroke="white" stroke-width="1.11952"/>
<path fill-rule="evenodd" clip-rule="evenodd" d="M13.1283 21.3338H10.6667V13.9492H13.1283V21.3338Z" fill="white"/>
<path fill-rule="evenodd" clip-rule="evenodd" d="M11.8902 12.3082H11.8762C11.1416 12.3082 10.6667 11.761 10.6667 11.077C10.6667 10.3786 11.1561 9.84668 11.9046 9.84668C12.6531 9.84668 13.1141 10.3786 13.1283 11.077C13.1283 11.761 12.6531 12.3082 11.8902 12.3082Z" fill="white"/>
<path fill-rule="evenodd" clip-rule="evenodd" d="M22.1538 21.3336H19.735V17.4736C19.735 16.5041 19.385 15.8425 18.5093 15.8425C17.841 15.8425 17.443 16.2885 17.2682 16.7193C17.2042 16.8736 17.1885 17.0887 17.1885 17.3044V21.3338H14.7693C14.7693 21.3338 14.8012 14.7959 14.7693 14.1188H17.1885V15.1408C17.5095 14.6495 18.0845 13.9492 19.3688 13.9492C20.9606 13.9492 22.1539 14.9806 22.1539 17.1968L22.1538 21.3336Z" fill="white"/>
</svg>
