<svg width="32" height="32" viewBox="0 0 32 32" fill="none" xmlns="http://www.w3.org/2000/svg">
<rect opacity="0.1" x="0.559761" y="0.559761" width="30.8805" height="30.8805" rx="15.4402" fill="white" stroke="white" stroke-width="1.11952"/>
<g clip-path="url(#clip0_37_226)">
<path d="M16.4132 13.0926C14.5495 13.0926 13.0462 14.5724 13.0462 16.4071C13.0462 18.2417 14.5495 19.7215 16.4132 19.7215C18.277 19.7215 19.7803 18.2417 19.7803 16.4071C19.7803 14.5724 18.277 13.0926 16.4132 13.0926ZM16.4132 18.5619C15.2088 18.5619 14.2242 17.5955 14.2242 16.4071C14.2242 15.2186 15.2059 14.2523 16.4132 14.2523C17.6205 14.2523 18.6022 15.2186 18.6022 16.4071C18.6022 17.5955 17.6176 18.5619 16.4132 18.5619ZM20.7033 12.9571C20.7033 13.3869 20.3517 13.7301 19.918 13.7301C19.4813 13.7301 19.1326 13.384 19.1326 12.9571C19.1326 12.5301 19.4843 12.184 19.918 12.184C20.3517 12.184 20.7033 12.5301 20.7033 12.9571ZM22.9334 13.7417C22.8835 12.7061 22.6433 11.7888 21.8726 11.033C21.1048 10.2773 20.1729 10.0407 19.1209 9.98879C18.0367 9.92822 14.7868 9.92822 13.7026 9.98879C12.6535 10.0378 11.7216 10.2744 10.951 11.0301C10.1803 11.7859 9.9429 12.7032 9.89015 13.7388C9.82861 14.8061 9.82861 18.0051 9.89015 19.0724C9.93996 20.108 10.1803 21.0253 10.951 21.7811C11.7216 22.5369 12.6506 22.7734 13.7026 22.8253C14.7868 22.8859 18.0367 22.8859 19.1209 22.8253C20.1729 22.7763 21.1048 22.5397 21.8726 21.7811C22.6403 21.0253 22.8806 20.108 22.9334 19.0724C22.9949 18.0051 22.9949 14.809 22.9334 13.7417ZM21.5326 20.2176C21.3041 20.783 20.8616 21.2186 20.2843 21.4465C19.4198 21.784 17.3685 21.7061 16.4132 21.7061C15.4579 21.7061 13.4037 21.7811 12.5422 21.4465C11.9678 21.2215 11.5253 20.7859 11.2938 20.2176C10.951 19.3667 11.0301 17.3474 11.0301 16.4071C11.0301 15.4667 10.9539 13.4446 11.2938 12.5965C11.5224 12.0311 11.9649 11.5955 12.5422 11.3676C13.4066 11.0301 15.4579 11.108 16.4132 11.108C17.3685 11.108 19.4227 11.033 20.2843 11.3676C20.8586 11.5926 21.3011 12.0282 21.5326 12.5965C21.8755 13.4474 21.7964 15.4667 21.7964 16.4071C21.7964 17.3474 21.8755 19.3696 21.5326 20.2176Z" fill="white"/>
</g>
<defs>
<clipPath id="clip0_37_226">
<rect width="13.1282" height="14.7692" fill="white" transform="translate(9.84619 9.02539)"/>
</clipPath>
</defs>
</svg>
