<svg width="32" height="32" viewBox="0 0 32 32" fill="none" xmlns="http://www.w3.org/2000/svg">
<rect opacity="0.1" x="0.559761" y="0.559761" width="30.8805" height="30.8805" rx="15.4402" fill="white" stroke="white" stroke-width="1.11952"/>
<path fill-rule="evenodd" clip-rule="evenodd" d="M15.846 13.888L15.8691 14.2784L15.4838 14.2306C14.0811 14.0474 12.8556 13.4259 11.8151 12.3822L11.3065 11.8644L11.1754 12.2468C10.898 13.0993 11.0752 13.9996 11.6533 14.605C11.9616 14.9397 11.8922 14.9875 11.3604 14.7883C11.1754 14.7246 11.0136 14.6768 10.9982 14.7007C10.9442 14.7564 11.1292 15.4814 11.2756 15.7682C11.476 16.1666 11.8845 16.557 12.3315 16.788L12.7092 16.9713L12.2621 16.9792C11.8305 16.9792 11.8151 16.9872 11.8614 17.1545C12.0155 17.6724 12.6244 18.2221 13.3026 18.4611L13.7805 18.6284L13.3643 18.8833C12.7477 19.2498 12.0232 19.457 11.2987 19.4729C10.9519 19.4809 10.6667 19.5127 10.6667 19.5366C10.6667 19.6163 11.607 20.0625 12.1542 20.2377C13.7959 20.7556 15.7458 20.5325 17.2102 19.6482C18.2507 19.0188 19.2912 17.768 19.7767 16.557C20.0388 15.9116 20.3008 14.7325 20.3008 14.1669C20.3008 13.8004 20.3239 13.7526 20.7555 13.3144C21.0099 13.0594 21.2488 12.7806 21.2951 12.7009C21.3721 12.5496 21.3644 12.5496 20.9713 12.685C20.3162 12.924 20.2237 12.8921 20.5474 12.5336C20.7864 12.2787 21.0715 11.8166 21.0715 11.6811C21.0715 11.6572 20.9559 11.6971 20.8249 11.7688C20.6862 11.8485 20.3779 11.968 20.1467 12.0397L19.7305 12.1751L19.3528 11.9122C19.1447 11.7688 18.8519 11.6094 18.6977 11.5616C18.3046 11.4501 17.7035 11.466 17.3489 11.5935C16.3855 11.952 15.7767 12.8762 15.846 13.888Z" fill="white"/>
</svg>
